<svg xmlns="http://www.w3.org/2000/svg" xmlns:xlink="http://www.w3.org/1999/xlink" width="1344" zoomAndPan="magnify" viewBox="0 0 1008 1295.99994" height="1728" preserveAspectRatio="xMidYMid meet" version="1.0"><defs><g/></defs><path fill="#ffffff" d="M 473.71875 210.878906 C 321.800781 219.21875 200.992188 351.464844 200.886719 513.433594 L 200.886719 801.339844 C 200.886719 809.679688 207.621094 816.519531 216.066406 816.519531 L 281.707031 816.519531 C 290.046875 816.519531 296.890625 809.785156 296.890625 801.339844 L 296.890625 680.105469 C 296.890625 671.765625 303.625 664.925781 312.070312 664.925781 L 377.714844 664.925781 C 386.050781 664.925781 392.894531 671.660156 392.894531 680.105469 L 392.894531 801.339844 C 392.894531 809.679688 399.628906 816.519531 408.074219 816.519531 L 473.71875 816.519531 C 482.054688 816.519531 488.898438 809.785156 488.898438 801.339844 L 488.898438 225.527344 C 488.898438 217.1875 482.054688 210.878906 473.71875 210.878906 Z M 473.71875 210.878906 " fill-opacity="1" fill-rule="nonzero"/><path fill="#ffffff" d="M 791.878906 210.453125 L 534.335938 210.453125 C 525.996094 210.453125 519.152344 217.296875 519.152344 225.632812 L 519.152344 498.574219 C 519.152344 506.914062 525.890625 513.753906 534.335938 513.753906 L 647.230469 513.753906 C 656.210938 513.753906 663.269531 521.558594 662.304688 530.539062 C 654.820312 601.527344 600.617188 657.867188 532.839844 664.601562 C 525.035156 665.351562 519.152344 671.875 519.152344 679.675781 L 519.152344 801.339844 C 519.152344 810 526.425781 816.949219 535.082031 816.519531 C 686.679688 807.753906 807.0625 675.507812 807.0625 513.753906 L 807.0625 225.527344 C 807.0625 217.1875 800.21875 210.453125 791.878906 210.453125 Z M 699.082031 433.894531 C 679.195312 433.894531 663.054688 417.75 663.054688 397.863281 C 663.054688 377.980469 679.195312 361.835938 699.082031 361.835938 C 718.96875 361.835938 735.109375 377.980469 735.109375 397.863281 C 735.109375 417.75 718.96875 433.894531 699.082031 433.894531 Z M 699.082031 433.894531 " fill-opacity="1" fill-rule="nonzero"/><g fill="#ffffff" fill-opacity="1"><g transform="translate(208.77475, 864.185304)"><g><path d="M 2.625 -22.398438 L 2.625 0 L 4.351562 0 L 4.351562 -19.164062 L 20.699219 0 L 21.980469 0 L 21.980469 -22.398438 L 20.253906 -22.398438 L 20.253906 -3.199219 L 3.871094 -22.398438 Z M 2.625 -22.398438 "/></g></g></g><g fill="#ffffff" fill-opacity="1"><g transform="translate(243.552684, 864.185304)"><g><path d="M 12.15625 -22.398438 L 2.625 0 L 4.480469 0 L 6.496094 -4.671875 L 18.972656 -4.671875 L 20.988281 0 L 22.875 0 L 13.308594 -22.398438 Z M 7.230469 -6.398438 L 12.734375 -19.292969 L 18.238281 -6.398438 Z M 7.230469 -6.398438 "/></g></g></g><g fill="#ffffff" fill-opacity="1"><g transform="translate(279.194407, 864.185304)"><g><path d="M 11.421875 0 L 13.148438 0 L 13.148438 -20.636719 L 21.980469 -20.636719 L 21.980469 -22.398438 L 2.625 -22.398438 L 2.625 -20.636719 L 11.421875 -20.636719 Z M 11.421875 0 "/></g></g></g><g fill="#ffffff" fill-opacity="1"><g transform="translate(313.972335, 864.185304)"><g><path d="M 21.980469 -20.636719 L 21.980469 -22.398438 L 2.625 -22.398438 L 2.625 0 L 21.980469 0 L 21.980469 -1.726562 L 4.351562 -1.726562 L 4.351562 -10.300781 L 15.742188 -10.300781 L 15.742188 -12.0625 L 4.351562 -12.0625 L 4.351562 -20.636719 Z M 21.980469 -20.636719 "/></g></g></g><g fill="#ffffff" fill-opacity="1"><g transform="translate(348.750263, 864.185304)"><g><path d="M 2.625 -22.398438 L 2.625 0 L 4.351562 0 L 4.351562 -19.164062 L 20.699219 0 L 21.980469 0 L 21.980469 -22.398438 L 20.253906 -22.398438 L 20.253906 -3.199219 L 3.871094 -22.398438 Z M 2.625 -22.398438 "/></g></g></g><g fill="#ffffff" fill-opacity="1"><g transform="translate(383.528191, 864.185304)"><g><path d="M 13.789062 0 C 19.964844 0 24.988281 -5.023438 24.988281 -11.199219 C 24.988281 -17.375 19.964844 -22.398438 13.789062 -22.398438 C 7.648438 -22.398438 2.625 -17.375 2.625 -11.199219 C 2.625 -5.023438 7.648438 0 13.789062 0 Z M 13.789062 -20.636719 C 19.035156 -20.636719 23.261719 -16.414062 23.261719 -11.199219 C 23.261719 -5.949219 19.035156 -1.726562 13.789062 -1.726562 C 8.574219 -1.726562 4.351562 -5.949219 4.351562 -11.199219 C 4.351562 -16.414062 8.574219 -20.636719 13.789062 -20.636719 Z M 13.789062 -20.636719 "/></g></g></g><g fill="#ffffff" fill-opacity="1"><g transform="translate(421.2814, 864.185304)"><g><path d="M 13.820312 -2.785156 L 4 -22.398438 L 2.625 -22.398438 L 2.625 0 L 4.351562 0 L 4.351562 -17.851562 L 13.277344 0 L 14.332031 0 L 23.261719 -17.851562 L 23.261719 0 L 25.019531 0 L 25.019531 -22.398438 L 23.613281 -22.398438 Z M 13.820312 -2.785156 "/></g></g></g><g fill="#ffffff" fill-opacity="1"><g transform="translate(459.034609, 864.185304)"><g/></g></g><g fill="#ffffff" fill-opacity="1"><g transform="translate(480.375847, 864.185304)"><g><path d="M 7.421875 -17.757812 L 7.421875 -24.730469 L 5.695312 -24.730469 L 5.695312 -17.757812 L 1.054688 -17.757812 L 1.054688 -16.03125 L 5.695312 -16.03125 L 5.695312 2.367188 L 7.421875 2.367188 L 7.421875 -16.03125 L 12.09375 -16.03125 L 12.09375 -17.757812 Z M 7.421875 -17.757812 "/></g></g></g><g fill="#ffffff" fill-opacity="1"><g transform="translate(503.6686, 864.185304)"><g/></g></g><g fill="#ffffff" fill-opacity="1"><g transform="translate(525.009839, 864.185304)"><g><path d="M 21.246094 -16.347656 C 21.246094 -19.675781 18.523438 -22.398438 15.199219 -22.398438 L 7.902344 -22.398438 C 4.574219 -22.398438 1.886719 -19.675781 1.886719 -16.347656 L 3.617188 -16.347656 C 3.617188 -18.71875 5.535156 -20.636719 7.902344 -20.636719 L 15.199219 -20.636719 C 17.566406 -20.636719 19.515625 -18.71875 19.515625 -16.347656 C 19.515625 -13.980469 17.566406 -12.0625 15.199219 -12.0625 L 11.550781 -12.0625 L 11.550781 -10.300781 L 15.199219 -10.300781 C 17.566406 -10.300781 19.515625 -8.382812 19.515625 -6.015625 C 19.515625 -3.648438 17.566406 -1.726562 15.199219 -1.726562 L 7.902344 -1.726562 C 5.535156 -1.726562 3.617188 -3.648438 3.617188 -6.015625 L 1.886719 -6.015625 C 1.886719 -2.6875 4.574219 0 7.902344 0 L 15.199219 0 C 18.523438 0 21.246094 -2.6875 21.246094 -6.015625 C 21.246094 -8.191406 20.0625 -10.109375 18.332031 -11.199219 C 20.0625 -12.253906 21.246094 -14.171875 21.246094 -16.347656 Z M 21.246094 -16.347656 "/></g></g></g><g fill="#ffffff" fill-opacity="1"><g transform="translate(558.636056, 864.185304)"><g><path d="M 13.085938 -22.398438 C 6.941406 -22.398438 1.917969 -17.375 1.917969 -11.199219 C 1.917969 -5.023438 6.941406 0 13.085938 0 C 19.261719 0 24.285156 -5.023438 24.285156 -11.199219 C 24.285156 -17.375 19.261719 -22.398438 13.085938 -22.398438 Z M 13.085938 -1.726562 C 7.871094 -1.726562 3.648438 -5.949219 3.648438 -11.199219 C 3.648438 -16.414062 7.871094 -20.636719 13.085938 -20.636719 C 18.332031 -20.636719 22.554688 -16.414062 22.554688 -11.199219 C 22.554688 -5.949219 18.332031 -1.726562 13.085938 -1.726562 Z M 13.085938 -1.726562 "/></g></g></g><g fill="#ffffff" fill-opacity="1"><g transform="translate(594.981596, 864.185304)"><g><path d="M 1.953125 0 L 1.953125 -1.792969 L 0.222656 -1.792969 L 0.222656 0 Z M 1.953125 0 "/></g></g></g><g fill="#ffffff" fill-opacity="1"><g transform="translate(607.333066, 864.185304)"><g><path d="M 13.085938 -22.398438 C 6.941406 -22.398438 1.917969 -17.375 1.917969 -11.199219 C 1.917969 -5.023438 6.941406 0 13.085938 0 C 19.261719 0 24.285156 -5.023438 24.285156 -11.199219 C 24.285156 -17.375 19.261719 -22.398438 13.085938 -22.398438 Z M 13.085938 -1.726562 C 7.871094 -1.726562 3.648438 -5.949219 3.648438 -11.199219 C 3.648438 -16.414062 7.871094 -20.636719 13.085938 -20.636719 C 18.332031 -20.636719 22.554688 -16.414062 22.554688 -11.199219 C 22.554688 -5.949219 18.332031 -1.726562 13.085938 -1.726562 Z M 13.085938 -1.726562 "/></g></g></g><g fill="#ffffff" fill-opacity="1"><g transform="translate(643.678628, 864.185304)"><g><path d="M 5.597656 0 L 5.597656 -22.398438 L 2.078125 -22.398438 L 2.078125 -20.636719 L 3.871094 -20.636719 L 3.871094 0 Z M 5.597656 0 "/></g></g></g><g fill="#ffffff" fill-opacity="1"><g transform="translate(661.980613, 864.185304)"><g><path d="M 1.953125 0 L 1.953125 -1.792969 L 0.222656 -1.792969 L 0.222656 0 Z M 1.953125 0 "/></g></g></g><g fill="#ffffff" fill-opacity="1"><g transform="translate(674.332083, 864.185304)"><g><path d="M 15.484375 -12.0625 L 8.191406 -12.0625 C 4.863281 -12.0625 2.175781 -9.34375 2.175781 -6.015625 L 2.175781 0 L 21.53125 0 L 21.53125 -1.726562 L 3.902344 -1.726562 L 3.902344 -6.015625 C 3.902344 -8.382812 5.824219 -10.300781 8.191406 -10.300781 L 15.484375 -10.300781 C 18.8125 -10.300781 21.53125 -13.023438 21.53125 -16.347656 C 21.53125 -19.675781 18.8125 -22.398438 15.484375 -22.398438 L 8.191406 -22.398438 C 4.863281 -22.398438 2.175781 -19.675781 2.175781 -16.347656 L 3.902344 -16.347656 C 3.902344 -18.71875 5.824219 -20.636719 8.191406 -20.636719 L 15.484375 -20.636719 C 17.851562 -20.636719 19.804688 -18.71875 19.804688 -16.347656 C 19.804688 -13.980469 17.851562 -12.0625 15.484375 -12.0625 Z M 15.484375 -12.0625 "/></g></g></g><g fill="#ffffff" fill-opacity="1"><g transform="translate(707.830311, 864.185304)"><g><path d="M 13.085938 -22.398438 C 6.941406 -22.398438 1.917969 -17.375 1.917969 -11.199219 C 1.917969 -5.023438 6.941406 0 13.085938 0 C 19.261719 0 24.285156 -5.023438 24.285156 -11.199219 C 24.285156 -17.375 19.261719 -22.398438 13.085938 -22.398438 Z M 13.085938 -1.726562 C 7.871094 -1.726562 3.648438 -5.949219 3.648438 -11.199219 C 3.648438 -16.414062 7.871094 -20.636719 13.085938 -20.636719 C 18.332031 -20.636719 22.554688 -16.414062 22.554688 -11.199219 C 22.554688 -5.949219 18.332031 -1.726562 13.085938 -1.726562 Z M 13.085938 -1.726562 "/></g></g></g><g fill="#ffffff" fill-opacity="1"><g transform="translate(744.175873, 864.185304)"><g><path d="M 15.484375 -12.0625 L 8.191406 -12.0625 C 4.863281 -12.0625 2.175781 -9.34375 2.175781 -6.015625 L 2.175781 0 L 21.53125 0 L 21.53125 -1.726562 L 3.902344 -1.726562 L 3.902344 -6.015625 C 3.902344 -8.382812 5.824219 -10.300781 8.191406 -10.300781 L 15.484375 -10.300781 C 18.8125 -10.300781 21.53125 -13.023438 21.53125 -16.347656 C 21.53125 -19.675781 18.8125 -22.398438 15.484375 -22.398438 L 8.191406 -22.398438 C 4.863281 -22.398438 2.175781 -19.675781 2.175781 -16.347656 L 3.902344 -16.347656 C 3.902344 -18.71875 5.824219 -20.636719 8.191406 -20.636719 L 15.484375 -20.636719 C 17.851562 -20.636719 19.804688 -18.71875 19.804688 -16.347656 C 19.804688 -13.980469 17.851562 -12.0625 15.484375 -12.0625 Z M 15.484375 -12.0625 "/></g></g></g><g fill="#ffffff" fill-opacity="1"><g transform="translate(777.6741, 864.185304)"><g><path d="M 21.308594 0 L 21.308594 -22.398438 L 19.582031 -22.398438 L 19.582031 -12.0625 L 3.679688 -12.0625 L 3.679688 -22.398438 L 1.953125 -22.398438 L 1.953125 -10.300781 L 19.582031 -10.300781 L 19.582031 0 Z M 21.308594 0 "/></g></g></g><path stroke-linecap="butt" transform="matrix(0.75, 0, 0, 0.75, 194.6836, 94.999952)" fill="none" stroke-linejoin="miter" d="M 39.520829 69.734446 L 22.583327 69.734446 C 17.713535 69.734446 13.765618 65.786529 13.765618 60.916737 L 7.499992 60.916737 C 7.499992 69.281321 14.218743 76.072988 22.583327 76.072988 L 39.520829 76.072988 C 47.786454 76.072988 54.58333 69.281321 54.58333 60.916737 C 54.58333 52.572986 47.786454 45.849027 39.520829 45.849027 L 22.583327 45.849027 C 17.713535 45.849027 13.765618 41.906318 13.765618 37.031318 C 13.765618 32.161526 17.713535 28.218817 22.583327 28.218817 L 39.520829 28.218817 C 44.312496 28.218817 48.239579 32.161526 48.239579 37.031318 L 54.58333 37.031318 C 54.58333 28.671942 47.786454 21.875066 39.520829 21.875066 L 22.583327 21.875066 C 14.218743 21.875066 7.499992 28.671942 7.499992 37.031318 C 7.499992 45.375069 14.218743 52.099027 22.583327 52.099027 L 39.520829 52.099027 C 44.312496 52.099027 48.239579 56.046944 48.239579 60.916737 C 48.239579 65.786529 44.312496 69.734446 39.520829 69.734446 Z M 67.661456 21.875066 L 67.661456 28.218817 L 87.994791 28.218817 L 87.994791 76.072988 L 94.338542 76.072988 L 94.338542 28.218817 L 114.744794 28.218817 L 114.744794 21.875066 Z M 181.947925 49.000069 C 181.947925 34.088609 169.812507 21.875066 154.875005 21.875066 C 139.963546 21.875066 127.82292 34.088609 127.82292 49.000069 C 127.82292 63.93757 139.963546 76.072988 154.875005 76.072988 C 169.812507 76.072988 181.947925 63.93757 181.947925 49.000069 Z M 134.088545 49.000069 C 134.088545 37.562568 143.437504 28.218817 154.875005 28.218817 C 166.338548 28.218817 175.604174 37.484443 175.604174 49.000069 C 175.604174 60.463612 166.338548 69.734446 154.875005 69.734446 C 143.437504 69.734446 134.088545 60.463612 134.088545 49.000069 Z M 194.786467 76.072988 L 201.057301 76.072988 L 201.057301 52.099027 L 226.807303 52.099027 C 235.078138 52.099027 241.875013 45.375069 241.875013 37.031318 C 241.875013 28.671942 235.078138 21.875066 226.807303 21.875066 L 194.786467 21.875066 Z M 201.057301 28.218817 L 226.807303 28.218817 C 231.604179 28.218817 235.531263 32.161526 235.531263 37.031318 C 235.531263 41.906318 231.604179 45.849027 226.807303 45.849027 L 201.057301 45.849027 Z M 282.171892 21.875066 L 282.171892 28.218817 L 302.500018 28.218817 L 302.500018 76.072988 L 308.843769 76.072988 L 308.843769 28.218817 L 329.255229 28.218817 L 329.255229 21.875066 Z M 383.072942 52.099027 L 383.072942 76.072988 L 389.416693 76.072988 L 389.416693 21.875066 L 383.072942 21.875066 L 383.072942 45.849027 L 348.598981 45.849027 L 348.598981 21.875066 L 342.333355 21.875066 L 342.333355 76.072988 L 348.598981 76.072988 L 348.598981 52.099027 Z M 449.578156 28.218817 L 449.578156 21.875066 L 402.494819 21.875066 L 402.494819 76.072988 L 449.578156 76.072988 L 449.578156 69.734446 L 408.760445 69.734446 L 408.760445 52.099027 L 435.114614 52.099027 L 435.114614 45.849027 L 408.760445 45.849027 L 408.760445 28.218817 Z M 532.333372 76.072988 L 540.677123 76.072988 L 517.552121 49.000069 L 540.677123 21.875066 L 532.406289 21.875066 L 511.130245 46.77611 L 509.281287 49.000069 L 496.140661 64.333404 L 496.140661 21.875066 L 489.875035 21.875066 L 489.875035 76.072988 L 494.442744 76.072988 L 513.380245 53.796944 Z M 559.859416 76.072988 L 559.859416 21.875066 L 553.593791 21.875066 L 553.593791 76.072988 Z M 579.114626 21.875066 L 572.843792 21.875066 L 572.843792 76.072988 L 619.932338 76.072988 L 619.932338 69.734446 L 579.114626 69.734446 Z M 639.27609 21.875066 L 633.005256 21.875066 L 633.005256 76.072988 L 680.093802 76.072988 L 680.093802 69.734446 L 639.27609 69.734446 Z M 699.437554 76.072988 L 699.437554 21.875066 L 693.16672 21.875066 L 693.16672 76.072988 Z M 753.166725 64.333404 L 716.994847 21.875066 L 712.42193 21.875066 L 712.42193 76.072988 L 718.692764 76.072988 L 718.692764 33.614651 L 754.885475 76.072988 L 759.510476 76.072988 L 759.510476 21.875066 L 753.166725 21.875066 Z M 813.328189 72.281321 L 813.328189 76.072988 L 819.671939 76.072988 L 819.671939 45.849027 L 795.015687 45.849027 L 795.015687 52.099027 L 813.328189 52.099027 L 813.328189 64.557362 C 809.552147 67.880279 804.755271 69.734446 799.562562 69.734446 C 794.088604 69.734446 788.822978 67.578195 784.953186 63.635487 C 776.833394 55.593819 776.833394 42.359443 784.953186 34.312568 C 788.822978 30.369859 794.088604 28.218817 799.562562 28.218817 C 805.13548 28.218817 810.401105 30.369859 814.270897 34.312568 L 818.744856 29.838609 C 808.156313 19.322983 790.994853 19.322983 780.479227 29.838609 C 769.885476 40.43236 769.885476 57.59382 780.479227 68.109446 C 785.572978 73.224029 792.369853 76.072988 799.562562 76.072988 C 804.531313 76.072988 809.22923 74.755279 813.328189 72.281321 Z M 837.843816 76.072988 L 837.843816 69.583404 L 831.57819 69.583404 L 831.57819 76.072988 Z M 837.843816 60.838612 L 837.843816 21.875066 L 831.57819 21.875066 L 831.57819 60.838612 Z M 837.843816 60.838612 " stroke="#ffffff" stroke-width="5.800013" stroke-opacity="1" stroke-miterlimit="4"/><g fill="#ffffff" fill-opacity="1"><g transform="translate(195.550787, 151.999947)"><g><path d="M 28.765625 -4.699219 L 16.066406 -4.699219 C 12.410156 -4.699219 9.453125 -7.65625 9.453125 -11.308594 L 4.753906 -11.308594 C 4.753906 -5.046875 9.800781 0.0585938 16.066406 0.0585938 L 28.765625 0.0585938 C 34.972656 0.0585938 40.078125 -5.046875 40.078125 -11.308594 C 40.078125 -17.574219 34.972656 -22.617188 28.765625 -22.617188 L 16.066406 -22.617188 C 12.410156 -22.617188 9.453125 -25.578125 9.453125 -29.230469 C 9.453125 -32.882812 12.410156 -35.84375 16.066406 -35.84375 L 28.765625 -35.84375 C 32.363281 -35.84375 35.320312 -32.882812 35.320312 -29.230469 L 40.078125 -29.230469 C 40.078125 -35.496094 34.972656 -40.597656 28.765625 -40.597656 L 16.066406 -40.597656 C 9.800781 -40.597656 4.753906 -35.496094 4.753906 -29.230469 C 4.753906 -22.96875 9.800781 -17.921875 16.066406 -17.921875 L 28.765625 -17.921875 C 32.363281 -17.921875 35.320312 -14.964844 35.320312 -11.308594 C 35.320312 -7.65625 32.363281 -4.699219 28.765625 -4.699219 Z M 28.765625 -4.699219 "/></g></g></g><g fill="#ffffff" fill-opacity="1"><g transform="translate(240.671793, 151.999947)"><g><path d="M 4.753906 -40.597656 L 4.753906 -35.84375 L 20.007812 -35.84375 L 20.007812 0.0585938 L 24.765625 0.0585938 L 24.765625 -35.84375 L 40.078125 -35.84375 L 40.078125 -40.597656 Z M 4.753906 -40.597656 "/></g></g></g><g fill="#ffffff" fill-opacity="1"><g transform="translate(285.792798, 151.999947)"><g><path d="M 45.355469 -20.242188 C 45.355469 -31.433594 36.25 -40.597656 25.054688 -40.597656 C 13.863281 -40.597656 4.753906 -31.433594 4.753906 -20.242188 C 4.753906 -9.046875 13.863281 0.0585938 25.054688 0.0585938 C 36.25 0.0585938 45.355469 -9.046875 45.355469 -20.242188 Z M 9.453125 -20.242188 C 9.453125 -28.824219 16.472656 -35.84375 25.054688 -35.84375 C 33.636719 -35.84375 40.597656 -28.882812 40.597656 -20.242188 C 40.597656 -11.65625 33.636719 -4.699219 25.054688 -4.699219 C 16.472656 -4.699219 9.453125 -11.65625 9.453125 -20.242188 Z M 9.453125 -20.242188 "/></g></g></g><g fill="#ffffff" fill-opacity="1"><g transform="translate(336.017468, 151.999947)"><g><path d="M 4.753906 0.0585938 L 9.453125 0.0585938 L 9.453125 -17.921875 L 28.765625 -17.921875 C 34.972656 -17.921875 40.078125 -22.96875 40.078125 -29.230469 C 40.078125 -35.496094 34.972656 -40.597656 28.765625 -40.597656 L 4.753906 -40.597656 Z M 9.453125 -35.84375 L 28.765625 -35.84375 C 32.363281 -35.84375 35.320312 -32.882812 35.320312 -29.230469 C 35.320312 -25.578125 32.363281 -22.617188 28.765625 -22.617188 L 9.453125 -22.617188 Z M 9.453125 -35.84375 "/></g></g></g><g fill="#ffffff" fill-opacity="1"><g transform="translate(401.553118, 151.999947)"><g><path d="M 4.753906 -40.597656 L 4.753906 -35.84375 L 20.007812 -35.84375 L 20.007812 0.0585938 L 24.765625 0.0585938 L 24.765625 -35.84375 L 40.078125 -35.84375 L 40.078125 -40.597656 Z M 4.753906 -40.597656 "/></g></g></g><g fill="#ffffff" fill-opacity="1"><g transform="translate(446.674123, 151.999947)"><g><path d="M 35.320312 -17.921875 L 35.320312 0.0585938 L 40.078125 0.0585938 L 40.078125 -40.597656 L 35.320312 -40.597656 L 35.320312 -22.617188 L 9.453125 -22.617188 L 9.453125 -40.597656 L 4.753906 -40.597656 L 4.753906 0.0585938 L 9.453125 0.0585938 L 9.453125 -17.921875 Z M 35.320312 -17.921875 "/></g></g></g><g fill="#ffffff" fill-opacity="1"><g transform="translate(491.795129, 151.999947)"><g><path d="M 40.078125 -35.84375 L 40.078125 -40.597656 L 4.753906 -40.597656 L 4.753906 0.0585938 L 40.078125 0.0585938 L 40.078125 -4.699219 L 9.453125 -4.699219 L 9.453125 -17.921875 L 29.230469 -17.921875 L 29.230469 -22.617188 L 9.453125 -22.617188 L 9.453125 -35.84375 Z M 40.078125 -35.84375 "/></g></g></g><g fill="#ffffff" fill-opacity="1"><g transform="translate(557.330767, 151.999947)"><g><path d="M 36.597656 0.0585938 L 42.859375 0.0585938 L 25.519531 -20.242188 L 42.859375 -40.597656 L 36.65625 -40.597656 L 20.707031 -21.921875 L 19.3125 -20.242188 L 9.453125 -8.757812 L 9.453125 -40.597656 L 4.753906 -40.597656 L 4.753906 0.0585938 L 8.175781 0.0585938 L 22.386719 -16.644531 Z M 36.597656 0.0585938 "/></g></g></g><g fill="#ffffff" fill-opacity="1"><g transform="translate(605.119597, 151.999947)"><g><path d="M 9.453125 0.0585938 L 9.453125 -40.597656 L 4.753906 -40.597656 L 4.753906 0.0585938 Z M 9.453125 0.0585938 "/></g></g></g><g fill="#ffffff" fill-opacity="1"><g transform="translate(619.560666, 151.999947)"><g><path d="M 9.453125 -40.597656 L 4.753906 -40.597656 L 4.753906 0.0585938 L 40.078125 0.0585938 L 40.078125 -4.699219 L 9.453125 -4.699219 Z M 9.453125 -40.597656 "/></g></g></g><g fill="#ffffff" fill-opacity="1"><g transform="translate(664.681695, 151.999947)"><g><path d="M 9.453125 -40.597656 L 4.753906 -40.597656 L 4.753906 0.0585938 L 40.078125 0.0585938 L 40.078125 -4.699219 L 9.453125 -4.699219 Z M 9.453125 -40.597656 "/></g></g></g><g fill="#ffffff" fill-opacity="1"><g transform="translate(709.802724, 151.999947)"><g><path d="M 9.453125 0.0585938 L 9.453125 -40.597656 L 4.753906 -40.597656 L 4.753906 0.0585938 Z M 9.453125 0.0585938 "/></g></g></g><g fill="#ffffff" fill-opacity="1"><g transform="translate(724.243793, 151.999947)"><g><path d="M 35.320312 -8.757812 L 8.175781 -40.597656 L 4.753906 -40.597656 L 4.753906 0.0585938 L 9.453125 0.0585938 L 9.453125 -31.78125 L 36.597656 0.0585938 L 40.078125 0.0585938 L 40.078125 -40.597656 L 35.320312 -40.597656 Z M 35.320312 -8.757812 "/></g></g></g><g fill="#ffffff" fill-opacity="1"><g transform="translate(769.364822, 151.999947)"><g><path d="M 35.320312 -2.785156 L 35.320312 0.0585938 L 40.078125 0.0585938 L 40.078125 -22.617188 L 21.574219 -22.617188 L 21.574219 -17.921875 L 35.320312 -17.921875 L 35.320312 -8.582031 C 32.480469 -6.089844 28.882812 -4.699219 24.996094 -4.699219 C 20.878906 -4.699219 16.933594 -6.320312 14.035156 -9.28125 C 7.945312 -15.3125 7.945312 -25.230469 14.035156 -31.261719 C 16.933594 -34.21875 20.878906 -35.84375 24.996094 -35.84375 C 29.171875 -35.84375 33.117188 -34.21875 36.015625 -31.261719 L 39.378906 -34.625 C 31.433594 -42.511719 18.558594 -42.511719 10.671875 -34.625 C 2.726562 -26.679688 2.726562 -13.804688 10.671875 -5.914062 C 14.5 -2.089844 19.601562 0.0585938 24.996094 0.0585938 C 28.707031 0.0585938 32.246094 -0.929688 35.320312 -2.785156 Z M 35.320312 -2.785156 "/></g></g></g><g fill="#ffffff" fill-opacity="1"><g transform="translate(814.485851, 151.999947)"><g><path d="M 8.582031 0.0585938 L 8.582031 -4.8125 L 3.886719 -4.8125 L 3.886719 0.0585938 Z M 8.582031 -11.367188 L 8.582031 -40.597656 L 3.886719 -40.597656 L 3.886719 -11.367188 Z M 8.582031 -11.367188 "/></g></g></g><g fill="#ffffff" fill-opacity="1"><g transform="translate(188.370828, 976.297574)"><g><path d="M 7.566406 0 L 13.105469 0 C 13.648438 0 14.117188 -0.3125 14.351562 -0.78125 L 21.605469 -16.378906 C 21.839844 -16.847656 22.308594 -17.160156 22.855469 -17.160156 L 37.828125 -17.160156 C 39 -17.160156 39.78125 -16.378906 39.78125 -15.445312 C 39.78125 -15.132812 39.703125 -14.820312 39.546875 -14.507812 L 34.007812 -2.652344 C 33.851562 -2.339844 33.773438 -2.027344 33.773438 -1.714844 C 33.773438 -0.78125 34.554688 0 35.722656 0 L 41.261719 0 C 41.808594 0 42.277344 -0.3125 42.511719 -0.78125 L 49.765625 -16.378906 C 49.996094 -16.847656 50.464844 -17.160156 51.011719 -17.160156 L 59.28125 -17.160156 C 59.824219 -17.160156 60.371094 -17.550781 60.605469 -18.019531 L 62.554688 -22.308594 C 62.710938 -22.621094 62.789062 -22.933594 62.789062 -23.242188 C 62.789062 -24.257812 62.089844 -24.960938 60.917969 -24.960938 L 56.707031 -24.960938 C 55.535156 -24.960938 54.757812 -25.738281 54.757812 -26.675781 C 54.757812 -26.988281 54.835938 -27.300781 54.988281 -27.613281 L 61.074219 -40.558594 C 61.308594 -41.027344 61.777344 -41.339844 62.320312 -41.339844 L 70.589844 -41.339844 C 71.136719 -41.339844 71.683594 -41.730469 71.914062 -42.199219 L 73.867188 -46.488281 C 74.023438 -46.800781 74.101562 -47.113281 74.101562 -47.425781 C 74.101562 -48.4375 73.398438 -49.140625 72.226562 -49.140625 L 68.015625 -49.140625 C 66.847656 -49.140625 66.066406 -49.921875 66.066406 -50.855469 C 66.066406 -51.167969 66.144531 -51.480469 66.300781 -51.792969 L 71.839844 -63.648438 C 71.992188 -63.960938 72.070312 -64.273438 72.070312 -64.585938 C 72.070312 -65.519531 71.292969 -66.300781 70.121094 -66.300781 L 64.585938 -66.300781 C 64.039062 -66.300781 63.570312 -65.988281 63.335938 -65.519531 L 56.082031 -49.921875 C 55.847656 -49.453125 55.378906 -49.140625 54.835938 -49.140625 L 39.859375 -49.140625 C 38.6875 -49.140625 37.90625 -49.921875 37.90625 -50.855469 C 37.90625 -51.167969 37.984375 -51.480469 38.140625 -51.792969 L 43.679688 -63.648438 C 43.835938 -63.960938 43.914062 -64.273438 43.914062 -64.585938 C 43.914062 -65.519531 43.132812 -66.300781 41.964844 -66.300781 L 36.425781 -66.300781 C 35.878906 -66.300781 35.410156 -65.988281 35.179688 -65.519531 L 27.925781 -49.921875 C 27.691406 -49.453125 27.222656 -49.140625 26.675781 -49.140625 L 17.160156 -49.140625 C 16.613281 -49.140625 16.066406 -48.75 15.835938 -48.28125 L 13.882812 -43.992188 C 13.726562 -43.679688 13.648438 -43.367188 13.648438 -43.054688 C 13.648438 -42.042969 14.351562 -41.339844 15.523438 -41.339844 L 20.980469 -41.339844 C 22.152344 -41.339844 22.933594 -40.558594 22.933594 -39.625 C 22.933594 -39.3125 22.855469 -39 22.699219 -38.6875 L 16.613281 -25.738281 C 16.378906 -25.273438 15.910156 -24.960938 15.367188 -24.960938 L 5.851562 -24.960938 C 5.304688 -24.960938 4.757812 -24.570312 4.523438 -24.101562 L 2.574219 -19.8125 C 2.417969 -19.5 2.339844 -19.1875 2.339844 -18.875 C 2.339844 -17.863281 3.042969 -17.160156 4.210938 -17.160156 L 9.671875 -17.160156 C 10.84375 -17.160156 11.621094 -16.378906 11.621094 -15.445312 C 11.621094 -15.132812 11.542969 -14.820312 11.386719 -14.507812 L 5.851562 -2.652344 C 5.695312 -2.339844 5.617188 -2.027344 5.617188 -1.714844 C 5.617188 -0.78125 6.394531 0 7.566406 0 Z M 28.546875 -24.960938 C 27.378906 -24.960938 26.597656 -25.738281 26.597656 -26.675781 C 26.597656 -26.988281 26.675781 -27.300781 26.832031 -27.613281 L 32.914062 -40.558594 C 33.148438 -41.027344 33.617188 -41.339844 34.164062 -41.339844 L 49.140625 -41.339844 C 50.308594 -41.339844 51.089844 -40.558594 51.089844 -39.625 C 51.089844 -39.3125 51.011719 -39 50.855469 -38.6875 L 44.773438 -25.738281 C 44.539062 -25.273438 44.070312 -24.960938 43.523438 -24.960938 Z M 28.546875 -24.960938 "/></g></g></g><g fill="#ffffff" fill-opacity="1"><g transform="translate(267.618914, 976.297574)"><g><path d="M 27.457031 0 L 35.257812 0 C 36.113281 0 36.738281 -0.46875 37.050781 -1.246094 L 62.011719 -64.507812 C 62.089844 -64.738281 62.164062 -64.972656 62.164062 -65.207031 C 62.164062 -65.910156 61.699219 -66.300781 60.761719 -66.300781 L 54.835938 -66.300781 C 53.976562 -66.300781 53.351562 -65.832031 53.039062 -65.050781 L 32.371094 -12.636719 C 32.136719 -12.011719 31.746094 -11.621094 31.355469 -11.621094 C 30.964844 -11.621094 30.652344 -12.011719 30.34375 -12.636719 L 9.671875 -65.050781 C 9.359375 -65.832031 8.734375 -66.300781 7.878906 -66.300781 L 1.949219 -66.300781 C 1.015625 -66.300781 0.546875 -65.910156 0.546875 -65.207031 C 0.546875 -64.972656 0.625 -64.738281 0.703125 -64.507812 L 25.660156 -1.246094 C 25.972656 -0.46875 26.597656 0 27.457031 0 Z M 27.457031 0 "/></g></g></g><g fill="#ffffff" fill-opacity="1"><g transform="translate(333.138988, 976.297574)"><g><path d="M 3.511719 0 L 27.691406 0 C 28.546875 0 29.25 -0.703125 29.25 -1.558594 L 29.25 -7.019531 C 29.25 -7.878906 28.546875 -8.578125 27.691406 -8.578125 L 21.449219 -8.578125 C 20.4375 -8.578125 19.890625 -9.125 19.890625 -10.140625 L 19.890625 -56.160156 C 19.890625 -57.175781 20.4375 -57.71875 21.449219 -57.71875 L 27.691406 -57.71875 C 28.546875 -57.71875 29.25 -58.421875 29.25 -59.28125 L 29.25 -64.738281 C 29.25 -65.597656 28.546875 -66.300781 27.691406 -66.300781 L 3.511719 -66.300781 C 2.652344 -66.300781 1.949219 -65.597656 1.949219 -64.738281 L 1.949219 -59.28125 C 1.949219 -58.421875 2.652344 -57.71875 3.511719 -57.71875 L 9.75 -57.71875 C 10.765625 -57.71875 11.308594 -57.175781 11.308594 -56.160156 L 11.308594 -10.140625 C 11.308594 -9.125 10.765625 -8.578125 9.75 -8.578125 L 3.511719 -8.578125 C 2.652344 -8.578125 1.949219 -7.878906 1.949219 -7.019531 L 1.949219 -1.558594 C 1.949219 -0.703125 2.652344 0 3.511719 0 Z M 3.511719 0 "/></g></g></g><g fill="#ffffff" fill-opacity="1"><g transform="translate(367.147038, 976.297574)"><g><path d="M 20.203125 0 L 38.296875 0 C 47.8125 0 54.988281 -7.175781 54.988281 -16.691406 L 54.988281 -20.980469 C 54.988281 -28.9375 49.6875 -35.257812 41.808594 -36.738281 L 18.253906 -41.027344 C 14.507812 -41.652344 12.089844 -44.617188 12.089844 -48.4375 L 12.089844 -50.308594 C 12.089844 -54.679688 15.367188 -57.71875 20.203125 -57.71875 L 38.296875 -57.71875 C 43.132812 -57.71875 46.410156 -54.445312 46.410156 -49.609375 L 46.410156 -47.347656 C 46.410156 -46.566406 47.035156 -45.941406 47.8125 -45.941406 L 53.585938 -45.941406 C 54.367188 -45.941406 54.988281 -46.566406 54.988281 -47.347656 L 54.988281 -49.609375 C 54.988281 -59.125 47.8125 -66.300781 38.296875 -66.300781 L 20.203125 -66.300781 C 10.6875 -66.300781 3.511719 -59.4375 3.511719 -50.308594 L 3.511719 -48.4375 C 3.511719 -40.480469 8.96875 -33.929688 16.691406 -32.605469 L 40.246094 -28.3125 C 44.070312 -27.613281 46.410156 -24.804688 46.410156 -20.980469 L 46.410156 -16.691406 C 46.410156 -11.855469 43.132812 -8.578125 38.296875 -8.578125 L 20.203125 -8.578125 C 15.367188 -8.578125 12.089844 -11.074219 12.089844 -14.429688 L 12.089844 -18.953125 C 12.089844 -19.734375 11.464844 -20.359375 10.6875 -20.359375 L 4.914062 -20.359375 C 4.132812 -20.359375 3.511719 -19.734375 3.511719 -18.953125 L 3.511719 -14.429688 C 3.511719 -6.160156 10.6875 0 20.203125 0 Z M 20.203125 0 "/></g></g></g><g fill="#ffffff" fill-opacity="1"><g transform="translate(428.455126, 976.297574)"><g><path d="M 3.511719 0 L 27.691406 0 C 28.546875 0 29.25 -0.703125 29.25 -1.558594 L 29.25 -7.019531 C 29.25 -7.878906 28.546875 -8.578125 27.691406 -8.578125 L 21.449219 -8.578125 C 20.4375 -8.578125 19.890625 -9.125 19.890625 -10.140625 L 19.890625 -56.160156 C 19.890625 -57.175781 20.4375 -57.71875 21.449219 -57.71875 L 27.691406 -57.71875 C 28.546875 -57.71875 29.25 -58.421875 29.25 -59.28125 L 29.25 -64.738281 C 29.25 -65.597656 28.546875 -66.300781 27.691406 -66.300781 L 3.511719 -66.300781 C 2.652344 -66.300781 1.949219 -65.597656 1.949219 -64.738281 L 1.949219 -59.28125 C 1.949219 -58.421875 2.652344 -57.71875 3.511719 -57.71875 L 9.75 -57.71875 C 10.765625 -57.71875 11.308594 -57.175781 11.308594 -56.160156 L 11.308594 -10.140625 C 11.308594 -9.125 10.765625 -8.578125 9.75 -8.578125 L 3.511719 -8.578125 C 2.652344 -8.578125 1.949219 -7.878906 1.949219 -7.019531 L 1.949219 -1.558594 C 1.949219 -0.703125 2.652344 0 3.511719 0 Z M 3.511719 0 "/></g></g></g><g fill="#ffffff" fill-opacity="1"><g transform="translate(462.463187, 976.297574)"><g><path d="M 25.351562 0 L 33.148438 0 C 45.707031 0 54.988281 -9.28125 54.988281 -21.839844 L 54.988281 -44.460938 C 54.988281 -56.941406 45.628906 -66.300781 33.148438 -66.300781 L 25.351562 -66.300781 C 12.871094 -66.300781 3.511719 -56.941406 3.511719 -44.460938 L 3.511719 -21.839844 C 3.511719 -9.359375 12.871094 0 25.351562 0 Z M 25.351562 -8.578125 C 17.628906 -8.578125 12.089844 -14.039062 12.089844 -21.839844 L 12.089844 -44.460938 C 12.089844 -52.183594 17.550781 -57.71875 25.351562 -57.71875 L 33.148438 -57.71875 C 40.871094 -57.71875 46.410156 -52.261719 46.410156 -44.460938 L 46.410156 -21.839844 C 46.410156 -13.960938 40.949219 -8.578125 33.148438 -8.578125 Z M 25.351562 -8.578125 "/></g></g></g><g fill="#ffffff" fill-opacity="1"><g transform="translate(523.771265, 976.297574)"><g><path d="M 5.460938 0 L 10.921875 0 C 11.933594 0 12.480469 -0.546875 12.480469 -1.558594 L 12.480469 -48.75 C 12.480469 -49.609375 12.871094 -50.074219 13.339844 -50.074219 C 13.648438 -50.074219 14.039062 -49.84375 14.351562 -49.296875 L 44.929688 -1.015625 C 45.394531 -0.234375 45.941406 0 46.800781 0 L 53.820312 0 C 54.835938 0 55.378906 -0.546875 55.378906 -1.558594 L 55.378906 -64.738281 C 55.378906 -65.753906 54.835938 -66.300781 53.820312 -66.300781 L 48.359375 -66.300781 C 47.347656 -66.300781 46.800781 -65.753906 46.800781 -64.738281 L 46.800781 -17.550781 C 46.800781 -16.691406 46.410156 -16.222656 45.941406 -16.222656 C 45.628906 -16.222656 45.238281 -16.457031 44.929688 -17.003906 L 14.273438 -65.285156 C 13.804688 -66.066406 13.261719 -66.300781 12.402344 -66.300781 L 5.460938 -66.300781 C 4.445312 -66.300781 3.898438 -65.753906 3.898438 -64.738281 L 3.898438 -1.558594 C 3.898438 -0.546875 4.445312 0 5.460938 0 Z M 5.460938 0 "/></g></g></g><g fill="#ffffff" fill-opacity="1"><g transform="translate(585.859348, 976.297574)"><g><path d="M 5.460938 0 L 47.734375 0 C 48.75 0 49.296875 -0.546875 49.296875 -1.558594 L 49.296875 -7.019531 C 49.296875 -8.035156 48.75 -8.578125 47.734375 -8.578125 L 15.132812 -8.578125 C 14.273438 -8.578125 13.804688 -8.96875 13.804688 -9.515625 C 13.804688 -9.75 13.960938 -10.140625 14.195312 -10.453125 L 48.59375 -54.210938 C 49.0625 -54.835938 49.296875 -55.378906 49.296875 -56.160156 L 49.296875 -64.738281 C 49.296875 -65.753906 48.75 -66.300781 47.734375 -66.300781 L 5.460938 -66.300781 C 4.445312 -66.300781 3.898438 -65.753906 3.898438 -64.738281 L 3.898438 -59.28125 C 3.898438 -58.265625 4.445312 -57.71875 5.460938 -57.71875 L 38.0625 -57.71875 C 38.921875 -57.71875 39.390625 -57.328125 39.390625 -56.785156 C 39.390625 -56.550781 39.234375 -56.160156 39 -55.847656 L 4.601562 -12.089844 C 4.132812 -11.464844 3.898438 -10.921875 3.898438 -10.140625 L 3.898438 -1.558594 C 3.898438 -0.546875 4.445312 0 5.460938 0 Z M 5.460938 0 "/></g></g></g><g fill="#ffffff" fill-opacity="1"><g transform="translate(641.863433, 976.297574)"><g><path d="M 5.460938 0 L 49.53125 0 C 50.386719 0 51.089844 -0.703125 51.089844 -1.558594 L 51.089844 -7.019531 C 51.089844 -7.878906 50.386719 -8.578125 49.53125 -8.578125 L 14.039062 -8.578125 C 13.183594 -8.578125 12.480469 -9.28125 12.480469 -10.140625 L 12.480469 -27.300781 C 12.480469 -28.15625 13.183594 -28.859375 14.039062 -28.859375 L 47.191406 -28.859375 C 48.046875 -28.859375 48.75 -29.5625 48.75 -30.421875 L 48.75 -35.878906 C 48.75 -36.738281 48.046875 -37.441406 47.191406 -37.441406 L 14.039062 -37.441406 C 13.183594 -37.441406 12.480469 -38.140625 12.480469 -39 L 12.480469 -56.160156 C 12.480469 -57.019531 13.183594 -57.71875 14.039062 -57.71875 L 49.53125 -57.71875 C 50.386719 -57.71875 51.089844 -58.421875 51.089844 -59.28125 L 51.089844 -64.738281 C 51.089844 -65.597656 50.386719 -66.300781 49.53125 -66.300781 L 5.460938 -66.300781 C 4.601562 -66.300781 3.898438 -65.597656 3.898438 -64.738281 L 3.898438 -1.558594 C 3.898438 -0.703125 4.601562 0 5.460938 0 Z M 5.460938 0 "/></g></g></g><g fill="#ffffff" fill-opacity="1"><g transform="translate(698.491494, 976.297574)"><g><path d="M 5.460938 0 L 10.921875 0 C 11.933594 0 12.480469 -0.546875 12.480469 -1.558594 L 12.480469 -24.960938 C 12.480469 -25.972656 13.027344 -26.519531 14.039062 -26.519531 L 31.667969 -26.519531 C 32.527344 -26.519531 33.148438 -26.128906 33.539062 -25.429688 L 48.046875 -1.09375 C 48.4375 -0.390625 49.0625 0 49.921875 0 L 56.863281 0 C 57.71875 0 58.1875 -0.390625 58.1875 -0.9375 C 58.1875 -1.246094 58.109375 -1.558594 57.875 -1.871094 L 43.445312 -25.738281 C 43.289062 -26.050781 43.132812 -26.363281 43.132812 -26.597656 C 43.132812 -27.144531 43.523438 -27.535156 44.148438 -27.769531 C 50.855469 -30.421875 55.378906 -36.816406 55.378906 -44.695312 L 55.378906 -48.125 C 55.378906 -58.5 47.578125 -66.300781 37.207031 -66.300781 L 5.460938 -66.300781 C 4.445312 -66.300781 3.898438 -65.753906 3.898438 -64.738281 L 3.898438 -1.558594 C 3.898438 -0.546875 4.445312 0 5.460938 0 Z M 14.039062 -35.101562 C 13.027344 -35.101562 12.480469 -35.644531 12.480469 -36.660156 L 12.480469 -56.160156 C 12.480469 -57.175781 13.027344 -57.71875 14.039062 -57.71875 L 37.207031 -57.71875 C 42.898438 -57.71875 46.800781 -53.820312 46.800781 -48.125 L 46.800781 -44.695312 C 46.800781 -39 42.898438 -35.101562 37.207031 -35.101562 Z M 14.039062 -35.101562 "/></g></g></g><g fill="#ffffff" fill-opacity="1"><g transform="translate(761.125553, 976.297574)"><g><path d="M 25.351562 0 L 33.148438 0 C 45.707031 0 54.988281 -9.28125 54.988281 -21.839844 L 54.988281 -44.460938 C 54.988281 -56.941406 45.628906 -66.300781 33.148438 -66.300781 L 25.351562 -66.300781 C 12.871094 -66.300781 3.511719 -56.941406 3.511719 -44.460938 L 3.511719 -21.839844 C 3.511719 -9.359375 12.871094 0 25.351562 0 Z M 25.351562 -8.578125 C 17.628906 -8.578125 12.089844 -14.039062 12.089844 -21.839844 L 12.089844 -44.460938 C 12.089844 -52.183594 17.550781 -57.71875 25.351562 -57.71875 L 33.148438 -57.71875 C 40.871094 -57.71875 46.410156 -52.261719 46.410156 -44.460938 L 46.410156 -21.839844 C 46.410156 -13.960938 40.949219 -8.578125 33.148438 -8.578125 Z M 25.351562 -8.578125 "/></g></g></g></svg>